{"title":"Apt.Pupil.1998.720p.BRRip.XviD.AC3-PsychoLogic","uid":6603225,"size":2135809223,"categoryP":"video","categoryS":"hd___movies","magnet":"?xt=urn:btih:3aa475ccad44c07878662a7e6d2c1768116fb0b3&amp;dn=Apt.Pupil.1998.720p.BRRip.XviD.AC3-PsychoLogic&amp;tr=udp%3A%2F%2Ftracker.openbittorrent.com%3A80&amp;tr=udp%3A%2F%2Fopen.demonii.com%3A1337&amp;tr=udp%3A%2F%2Ftracker.coppersurfer.tk%3A6969&amp;tr=udp%3A%2F%2Fexodus.desync.com%3A6969","seeders":0,"leechers":1,"uploader":"PsychoLogic","files":7,"time":1313301408,"description":"Release Information:\n\nApt.Pupil.1998.720p.BRRip.XviD.AC3-PsychoLogic\n\nSource                           : Apt.Pupil.1998.720p.BluRay.X264-AMIABLE\nSubtitles                        : Danish, English, Romanian\nLanguage                         : English\nEncoded By                       : PsychoLogic\nSample Included                  : Yes\n\nMovie Information                : http://www.imdb.com/title/tt0118636/\nGenre                            : Drama | Thriller\nDirector                         : Bryan Singer\nCast                             : Ian McKellen, Brad Renfro and Joshua Jackson\nPlot                             : A boy blackmails his neighbour after suspecting him to be a Nazi war criminal. \n\nGeneral\nFormat                           : AVI\nFormat/Info                      : Audio Video Interleave\nFile size                        : 1.96 GiB\nDuration                         : 1h 51mn\nOverall bit rate                 : 2 528 Kbps\nWriting application              : VirtualDubMod 1.5.10.2 (build 2542/release)\nWriting library                  : VirtualDubMod build 2542/release\n\nVideo\nID                               : 0\nFormat                           : MPEG-4 Visual\nFormat profile                   : Advanced Simple@L5\nFormat settings, BVOP            : 2\nFormat settings, QPel            : No\nFormat settings, GMC             : No warppoints\nFormat settings, Matrix          : Default (H.263)\nCodec ID                         : XVID\nCodec ID/Hint                    : XviD\nDuration                         : 1h 51mn\nBit rate                         : 2 070 Kbps\nWidth                            : 1 280 pixels\nHeight                           : 528 pixels\nDisplay aspect ratio             : 2.40:1\nFrame rate                       : 23.976 fps\nColor space                      : YUV\nChroma subsampling               : 4:2:0\nBit depth                        : 8 bits\nScan type                        : Progressive\nCompression mode                 : Lossy\nBits/(Pixel*Frame)               : 0.128\nStream size                      : 1.61 GiB (82%)\nWriting library                  : XviD 1.2.1 (UTC 2008-12-04)\n\nAudio\nID                               : 1\nFormat                           : AC-3\nFormat/Info                      : Audio Coding 3\nMode extension                   : CM (complete main)\nCodec ID                         : 2000\nDuration                         : 1h 51mn\nBit rate mode                    : Constant\nBit rate                         : 448 Kbps\nChannel(s)                       : 6 channels\nChannel positions                : Front: L C R, Side: L R, LFE\nSampling rate                    : 48.0 KHz\nBit depth                        : 16 bits\nCompression mode                 : Lossy\nStream size                      : 356 MiB (18%)\nAlignment                        : Split accross interleaves\nInterleave, duration             : 42 ms (1.00 video frame)\nInterleave, preload duration     : 500 ms\n\n","torrent":{"xt":"urn:btih:3aa475ccad44c07878662a7e6d2c1768116fb0b3","amp;dn":"Apt.Pupil.1998.720p.BRRip.XviD.AC3-PsychoLogic","amp;tr":["udp%3A%2F%2Ftracker.openbittorrent.com%3A80","udp%3A%2F%2Fopen.demonii.com%3A1337","udp%3A%2F%2Ftracker.coppersurfer.tk%3A6969","udp%3A%2F%2Fexodus.desync.com%3A6969"],"infoHash":"3aa475ccad44c07878662a7e6d2c1768116fb0b3","infoHashBuffer":{"type":"Buffer","data":[58,164,117,204,173,68,192,120,120,102,42,126,109,44,23,104,17,111,176,179]},"announce":[],"urlList":[]}}